<mxfile host="app.diagrams.net" modified="2024-03-20T12:10:30.762Z" agent="Mozilla/5.0 (Macintosh; Intel Mac OS X 10_15_7) AppleWebKit/537.36 (KHTML, like Gecko) Chrome/122.0.0.0 Safari/537.36" etag="3fAwt3k-nHqTMDLLXeW6" version="24.0.2" type="github">
  <diagram name="Page-1" id="laaqa9r8Z81pmCjMjn5d">
    <mxGraphModel dx="681" dy="-667" grid="1" gridSize="10" guides="1" tooltips="1" connect="1" arrows="1" fold="1" page="1" pageScale="1" pageWidth="850" pageHeight="1100" math="0" shadow="0">
      <root>
        <mxCell id="0" />
        <mxCell id="1" parent="0" />
        <mxCell id="p7YxxRicqZeljFZkp7yE-1" value="D" style="ellipse;whiteSpace=wrap;html=1;aspect=fixed;flipH=1;" vertex="1" parent="1">
          <mxGeometry x="230" y="1550" width="20" height="20" as="geometry" />
        </mxCell>
        <mxCell id="p7YxxRicqZeljFZkp7yE-2" value="D" style="ellipse;whiteSpace=wrap;html=1;aspect=fixed;fontColor=#000000;flipH=1;" vertex="1" parent="1">
          <mxGeometry x="320" y="1550" width="20" height="20" as="geometry" />
        </mxCell>
        <mxCell id="p7YxxRicqZeljFZkp7yE-3" value="D" style="ellipse;whiteSpace=wrap;html=1;aspect=fixed;fontColor=#000000;flipH=1;" vertex="1" parent="1">
          <mxGeometry x="230" y="1630" width="20" height="20" as="geometry" />
        </mxCell>
        <mxCell id="p7YxxRicqZeljFZkp7yE-4" value="D" style="ellipse;whiteSpace=wrap;html=1;aspect=fixed;fontColor=#000000;flipH=1;" vertex="1" parent="1">
          <mxGeometry x="320" y="1630" width="20" height="20" as="geometry" />
        </mxCell>
        <mxCell id="p7YxxRicqZeljFZkp7yE-5" value="D" style="ellipse;whiteSpace=wrap;html=1;aspect=fixed;fontColor=#000000;flipH=1;" vertex="1" parent="1">
          <mxGeometry x="290" y="1510" width="20" height="20" as="geometry" />
        </mxCell>
        <mxCell id="p7YxxRicqZeljFZkp7yE-6" value="D" style="ellipse;whiteSpace=wrap;html=1;aspect=fixed;fontColor=#000000;flipH=1;dashed=1;" vertex="1" parent="1">
          <mxGeometry x="290" y="1590" width="20" height="20" as="geometry" />
        </mxCell>
        <mxCell id="p7YxxRicqZeljFZkp7yE-7" value="" style="endArrow=none;html=1;rounded=0;entryX=0.5;entryY=1;entryDx=0;entryDy=0;exitX=0.5;exitY=0;exitDx=0;exitDy=0;strokeColor=#FF0000;fontStyle=1" edge="1" parent="1" source="p7YxxRicqZeljFZkp7yE-3" target="p7YxxRicqZeljFZkp7yE-1">
          <mxGeometry width="50" height="50" relative="1" as="geometry">
            <mxPoint x="170" y="1651" as="sourcePoint" />
            <mxPoint x="220" y="1601" as="targetPoint" />
          </mxGeometry>
        </mxCell>
        <mxCell id="p7YxxRicqZeljFZkp7yE-8" value="" style="endArrow=none;html=1;rounded=0;entryX=0;entryY=0.5;entryDx=0;entryDy=0;exitX=1;exitY=0.5;exitDx=0;exitDy=0;strokeColor=#FF0000;" edge="1" parent="1" source="p7YxxRicqZeljFZkp7yE-3" target="p7YxxRicqZeljFZkp7yE-4">
          <mxGeometry width="50" height="50" relative="1" as="geometry">
            <mxPoint x="260" y="1651" as="sourcePoint" />
            <mxPoint x="250" y="1601" as="targetPoint" />
          </mxGeometry>
        </mxCell>
        <mxCell id="p7YxxRicqZeljFZkp7yE-9" value="" style="endArrow=none;html=1;rounded=0;entryX=0.5;entryY=1;entryDx=0;entryDy=0;exitX=0.5;exitY=0;exitDx=0;exitDy=0;strokeColor=#FF0000;" edge="1" parent="1" source="p7YxxRicqZeljFZkp7yE-4" target="p7YxxRicqZeljFZkp7yE-2">
          <mxGeometry width="50" height="50" relative="1" as="geometry">
            <mxPoint x="260" y="1651" as="sourcePoint" />
            <mxPoint x="260" y="1611" as="targetPoint" />
          </mxGeometry>
        </mxCell>
        <mxCell id="p7YxxRicqZeljFZkp7yE-10" value="" style="endArrow=none;html=1;rounded=0;entryX=0;entryY=0.5;entryDx=0;entryDy=0;exitX=1;exitY=0.5;exitDx=0;exitDy=0;strokeColor=#FF0000;" edge="1" parent="1" source="p7YxxRicqZeljFZkp7yE-1" target="p7YxxRicqZeljFZkp7yE-2">
          <mxGeometry width="50" height="50" relative="1" as="geometry">
            <mxPoint x="270" y="1661" as="sourcePoint" />
            <mxPoint x="270" y="1621" as="targetPoint" />
          </mxGeometry>
        </mxCell>
        <mxCell id="p7YxxRicqZeljFZkp7yE-11" value="" style="endArrow=none;html=1;rounded=0;entryX=0;entryY=1;entryDx=0;entryDy=0;exitX=1;exitY=0;exitDx=0;exitDy=0;strokeColor=#FF0000;" edge="1" parent="1" source="p7YxxRicqZeljFZkp7yE-1" target="p7YxxRicqZeljFZkp7yE-5">
          <mxGeometry width="50" height="50" relative="1" as="geometry">
            <mxPoint x="280" y="1671" as="sourcePoint" />
            <mxPoint x="280" y="1631" as="targetPoint" />
          </mxGeometry>
        </mxCell>
        <mxCell id="p7YxxRicqZeljFZkp7yE-13" value="" style="endArrow=none;html=1;rounded=0;exitX=1;exitY=0.5;exitDx=0;exitDy=0;strokeColor=#FF0000;entryX=0;entryY=0.5;entryDx=0;entryDy=0;" edge="1" parent="1" source="p7YxxRicqZeljFZkp7yE-5" target="p7YxxRicqZeljFZkp7yE-21">
          <mxGeometry width="50" height="50" relative="1" as="geometry">
            <mxPoint x="300" y="1691" as="sourcePoint" />
            <mxPoint x="360" y="1520" as="targetPoint" />
          </mxGeometry>
        </mxCell>
        <mxCell id="p7YxxRicqZeljFZkp7yE-15" value="" style="endArrow=none;html=1;rounded=0;entryX=0;entryY=1;entryDx=0;entryDy=0;exitX=1;exitY=0;exitDx=0;exitDy=0;strokeColor=#FF0000;" edge="1" parent="1" source="p7YxxRicqZeljFZkp7yE-4" target="p7YxxRicqZeljFZkp7yE-20">
          <mxGeometry width="50" height="50" relative="1" as="geometry">
            <mxPoint x="320" y="1711" as="sourcePoint" />
            <mxPoint x="330" y="1618" as="targetPoint" />
          </mxGeometry>
        </mxCell>
        <mxCell id="p7YxxRicqZeljFZkp7yE-16" value="" style="endArrow=none;html=1;rounded=0;entryX=0;entryY=1;entryDx=0;entryDy=0;exitX=1;exitY=0;exitDx=0;exitDy=0;strokeColor=#FF0000;dashed=1;" edge="1" parent="1" source="p7YxxRicqZeljFZkp7yE-3" target="p7YxxRicqZeljFZkp7yE-6">
          <mxGeometry width="50" height="50" relative="1" as="geometry">
            <mxPoint x="330" y="1721" as="sourcePoint" />
            <mxPoint x="330" y="1681" as="targetPoint" />
          </mxGeometry>
        </mxCell>
        <mxCell id="p7YxxRicqZeljFZkp7yE-17" value="" style="endArrow=none;html=1;rounded=0;entryX=0;entryY=0.5;entryDx=0;entryDy=0;exitX=1;exitY=0.5;exitDx=0;exitDy=0;dashed=1;strokeColor=#FF0000;" edge="1" parent="1" source="p7YxxRicqZeljFZkp7yE-6" target="p7YxxRicqZeljFZkp7yE-20">
          <mxGeometry width="50" height="50" relative="1" as="geometry">
            <mxPoint x="340" y="1731" as="sourcePoint" />
            <mxPoint x="327" y="1611" as="targetPoint" />
          </mxGeometry>
        </mxCell>
        <mxCell id="p7YxxRicqZeljFZkp7yE-18" value="" style="endArrow=none;html=1;rounded=0;entryX=0.5;entryY=1;entryDx=0;entryDy=0;exitX=0.5;exitY=0;exitDx=0;exitDy=0;strokeColor=#FF0000;dashed=1;" edge="1" parent="1" source="p7YxxRicqZeljFZkp7yE-6" target="p7YxxRicqZeljFZkp7yE-5">
          <mxGeometry width="50" height="50" relative="1" as="geometry">
            <mxPoint x="350" y="1741" as="sourcePoint" />
            <mxPoint x="350" y="1701" as="targetPoint" />
          </mxGeometry>
        </mxCell>
        <mxCell id="p7YxxRicqZeljFZkp7yE-20" value="D" style="ellipse;whiteSpace=wrap;html=1;aspect=fixed;fontColor=#000000;flipH=1;" vertex="1" parent="1">
          <mxGeometry x="370" y="1590" width="20" height="20" as="geometry" />
        </mxCell>
        <mxCell id="p7YxxRicqZeljFZkp7yE-21" value="D" style="ellipse;whiteSpace=wrap;html=1;aspect=fixed;fontColor=#000000;flipH=1;" vertex="1" parent="1">
          <mxGeometry x="370" y="1510" width="20" height="20" as="geometry" />
        </mxCell>
        <mxCell id="p7YxxRicqZeljFZkp7yE-22" value="" style="endArrow=none;html=1;rounded=0;entryX=0.5;entryY=1;entryDx=0;entryDy=0;exitX=0.5;exitY=0;exitDx=0;exitDy=0;strokeColor=#FF0000;" edge="1" parent="1" source="p7YxxRicqZeljFZkp7yE-20" target="p7YxxRicqZeljFZkp7yE-21">
          <mxGeometry width="50" height="50" relative="1" as="geometry">
            <mxPoint x="330" y="1640" as="sourcePoint" />
            <mxPoint x="330" y="1581" as="targetPoint" />
          </mxGeometry>
        </mxCell>
        <mxCell id="p7YxxRicqZeljFZkp7yE-23" value="" style="endArrow=none;html=1;rounded=0;entryX=0;entryY=1;entryDx=0;entryDy=0;exitX=1;exitY=0;exitDx=0;exitDy=0;strokeColor=#FF0000;" edge="1" parent="1" source="p7YxxRicqZeljFZkp7yE-2" target="p7YxxRicqZeljFZkp7yE-21">
          <mxGeometry width="50" height="50" relative="1" as="geometry">
            <mxPoint x="330" y="1640" as="sourcePoint" />
            <mxPoint x="330" y="1581" as="targetPoint" />
          </mxGeometry>
        </mxCell>
        <mxCell id="p7YxxRicqZeljFZkp7yE-25" value="" style="endArrow=classic;html=1;rounded=0;exitX=1;exitY=0.5;exitDx=0;exitDy=0;dashed=1;" edge="1" parent="1" source="p7YxxRicqZeljFZkp7yE-20">
          <mxGeometry width="50" height="50" relative="1" as="geometry">
            <mxPoint x="280" y="1550" as="sourcePoint" />
            <mxPoint x="420" y="1600" as="targetPoint" />
          </mxGeometry>
        </mxCell>
        <mxCell id="p7YxxRicqZeljFZkp7yE-26" value="" style="endArrow=classic;html=1;rounded=0;dashed=1;" edge="1" parent="1">
          <mxGeometry width="50" height="50" relative="1" as="geometry">
            <mxPoint x="390.000000000005" y="1520" as="sourcePoint" />
            <mxPoint x="420" y="1520" as="targetPoint" />
          </mxGeometry>
        </mxCell>
        <mxCell id="p7YxxRicqZeljFZkp7yE-27" value="" style="endArrow=classic;html=1;rounded=0;exitX=0.5;exitY=1;exitDx=0;exitDy=0;" edge="1" parent="1" source="p7YxxRicqZeljFZkp7yE-20">
          <mxGeometry width="50" height="50" relative="1" as="geometry">
            <mxPoint x="380" y="1620" as="sourcePoint" />
            <mxPoint x="380" y="1640" as="targetPoint" />
          </mxGeometry>
        </mxCell>
        <mxCell id="p7YxxRicqZeljFZkp7yE-28" value="" style="endArrow=classic;html=1;rounded=0;exitX=0.5;exitY=1;exitDx=0;exitDy=0;" edge="1" parent="1">
          <mxGeometry width="50" height="50" relative="1" as="geometry">
            <mxPoint x="329.89" y="1650" as="sourcePoint" />
            <mxPoint x="329.89" y="1680" as="targetPoint" />
          </mxGeometry>
        </mxCell>
        <mxCell id="p7YxxRicqZeljFZkp7yE-29" value="" style="endArrow=classic;html=1;rounded=0;" edge="1" parent="1">
          <mxGeometry width="50" height="50" relative="1" as="geometry">
            <mxPoint x="240" y="1650" as="sourcePoint" />
            <mxPoint x="240" y="1680" as="targetPoint" />
          </mxGeometry>
        </mxCell>
        <mxCell id="p7YxxRicqZeljFZkp7yE-30" value="" style="endArrow=classic;html=1;rounded=0;dashed=1;" edge="1" parent="1">
          <mxGeometry width="50" height="50" relative="1" as="geometry">
            <mxPoint x="340" y="1560" as="sourcePoint" />
            <mxPoint x="370" y="1560" as="targetPoint" />
          </mxGeometry>
        </mxCell>
        <mxCell id="p7YxxRicqZeljFZkp7yE-31" value="" style="endArrow=classic;html=1;rounded=0;exitX=1;exitY=0.5;exitDx=0;exitDy=0;dashed=1;" edge="1" parent="1">
          <mxGeometry width="50" height="50" relative="1" as="geometry">
            <mxPoint x="340" y="1639.89" as="sourcePoint" />
            <mxPoint x="370" y="1640" as="targetPoint" />
          </mxGeometry>
        </mxCell>
        <mxCell id="p7YxxRicqZeljFZkp7yE-32" value="" style="endArrow=classic;html=1;rounded=0;dashed=1;" edge="1" parent="1">
          <mxGeometry width="50" height="50" relative="1" as="geometry">
            <mxPoint x="240" y="1550" as="sourcePoint" />
            <mxPoint x="240" y="1520" as="targetPoint" />
          </mxGeometry>
        </mxCell>
        <mxCell id="p7YxxRicqZeljFZkp7yE-33" value="" style="endArrow=classic;html=1;rounded=0;dashed=1;" edge="1" parent="1">
          <mxGeometry width="50" height="50" relative="1" as="geometry">
            <mxPoint x="299.89" y="1510" as="sourcePoint" />
            <mxPoint x="299.89" y="1480" as="targetPoint" />
          </mxGeometry>
        </mxCell>
        <mxCell id="p7YxxRicqZeljFZkp7yE-34" value="" style="endArrow=classic;html=1;rounded=0;dashed=1;" edge="1" parent="1">
          <mxGeometry width="50" height="50" relative="1" as="geometry">
            <mxPoint x="379.89" y="1510" as="sourcePoint" />
            <mxPoint x="379.89" y="1480" as="targetPoint" />
          </mxGeometry>
        </mxCell>
        <mxCell id="p7YxxRicqZeljFZkp7yE-35" value="" style="endArrow=classic;html=1;rounded=0;dashed=1;" edge="1" parent="1">
          <mxGeometry width="50" height="50" relative="1" as="geometry">
            <mxPoint x="329.89" y="1551" as="sourcePoint" />
            <mxPoint x="329.89" y="1521" as="targetPoint" />
          </mxGeometry>
        </mxCell>
        <mxCell id="p7YxxRicqZeljFZkp7yE-36" value="" style="endArrow=classic;html=1;rounded=0;exitX=0.5;exitY=1;exitDx=0;exitDy=0;" edge="1" parent="1">
          <mxGeometry width="50" height="50" relative="1" as="geometry">
            <mxPoint x="299.89" y="1610" as="sourcePoint" />
            <mxPoint x="299.89" y="1640" as="targetPoint" />
          </mxGeometry>
        </mxCell>
        <mxCell id="p7YxxRicqZeljFZkp7yE-37" value="" style="endArrow=classic;html=1;rounded=0;exitX=0;exitY=0.5;exitDx=0;exitDy=0;" edge="1" parent="1" source="p7YxxRicqZeljFZkp7yE-1">
          <mxGeometry width="50" height="50" relative="1" as="geometry">
            <mxPoint x="249.89" y="1661" as="sourcePoint" />
            <mxPoint x="200" y="1560" as="targetPoint" />
          </mxGeometry>
        </mxCell>
        <mxCell id="p7YxxRicqZeljFZkp7yE-38" value="" style="endArrow=classic;html=1;rounded=0;exitX=0;exitY=0.5;exitDx=0;exitDy=0;" edge="1" parent="1">
          <mxGeometry width="50" height="50" relative="1" as="geometry">
            <mxPoint x="230" y="1639.93" as="sourcePoint" />
            <mxPoint x="200" y="1639.93" as="targetPoint" />
          </mxGeometry>
        </mxCell>
        <mxCell id="p7YxxRicqZeljFZkp7yE-39" value="" style="endArrow=classic;html=1;rounded=0;exitX=0;exitY=0.5;exitDx=0;exitDy=0;" edge="1" parent="1">
          <mxGeometry width="50" height="50" relative="1" as="geometry">
            <mxPoint x="290" y="1599.93" as="sourcePoint" />
            <mxPoint x="260" y="1599.93" as="targetPoint" />
          </mxGeometry>
        </mxCell>
        <mxCell id="p7YxxRicqZeljFZkp7yE-40" value="" style="endArrow=classic;html=1;rounded=0;exitX=1;exitY=0;exitDx=0;exitDy=0;" edge="1" parent="1" source="p7YxxRicqZeljFZkp7yE-6">
          <mxGeometry width="50" height="50" relative="1" as="geometry">
            <mxPoint x="300" y="1609.93" as="sourcePoint" />
            <mxPoint x="330" y="1580" as="targetPoint" />
          </mxGeometry>
        </mxCell>
        <mxCell id="p7YxxRicqZeljFZkp7yE-41" value="" style="endArrow=classic;html=1;rounded=0;exitX=1;exitY=0;exitDx=0;exitDy=0;" edge="1" parent="1" source="p7YxxRicqZeljFZkp7yE-20">
          <mxGeometry width="50" height="50" relative="1" as="geometry">
            <mxPoint x="390" y="1590" as="sourcePoint" />
            <mxPoint x="410" y="1580" as="targetPoint" />
          </mxGeometry>
        </mxCell>
        <mxCell id="p7YxxRicqZeljFZkp7yE-42" value="" style="endArrow=classic;html=1;rounded=0;exitX=1;exitY=0;exitDx=0;exitDy=0;" edge="1" parent="1" source="p7YxxRicqZeljFZkp7yE-21">
          <mxGeometry width="50" height="50" relative="1" as="geometry">
            <mxPoint x="390" y="1513" as="sourcePoint" />
            <mxPoint x="410" y="1500" as="targetPoint" />
          </mxGeometry>
        </mxCell>
        <mxCell id="p7YxxRicqZeljFZkp7yE-43" value="" style="endArrow=classic;html=1;rounded=0;exitX=0;exitY=0.5;exitDx=0;exitDy=0;" edge="1" parent="1">
          <mxGeometry width="50" height="50" relative="1" as="geometry">
            <mxPoint x="290" y="1519.93" as="sourcePoint" />
            <mxPoint x="260" y="1519.93" as="targetPoint" />
          </mxGeometry>
        </mxCell>
        <mxCell id="p7YxxRicqZeljFZkp7yE-45" value="" style="endArrow=classic;html=1;rounded=0;exitX=0;exitY=1;exitDx=0;exitDy=0;dashed=1;" edge="1" parent="1" source="p7YxxRicqZeljFZkp7yE-3">
          <mxGeometry width="50" height="50" relative="1" as="geometry">
            <mxPoint x="317" y="1603" as="sourcePoint" />
            <mxPoint x="210" y="1660" as="targetPoint" />
          </mxGeometry>
        </mxCell>
        <mxCell id="p7YxxRicqZeljFZkp7yE-46" value="" style="endArrow=classic;html=1;rounded=0;exitX=0;exitY=1;exitDx=0;exitDy=0;dashed=1;" edge="1" parent="1" source="p7YxxRicqZeljFZkp7yE-1">
          <mxGeometry width="50" height="50" relative="1" as="geometry">
            <mxPoint x="230" y="1570" as="sourcePoint" />
            <mxPoint x="210" y="1580" as="targetPoint" />
          </mxGeometry>
        </mxCell>
        <mxCell id="p7YxxRicqZeljFZkp7yE-47" value="" style="endArrow=classic;html=1;rounded=0;exitX=0;exitY=1;exitDx=0;exitDy=0;dashed=1;" edge="1" parent="1" source="p7YxxRicqZeljFZkp7yE-2">
          <mxGeometry width="50" height="50" relative="1" as="geometry">
            <mxPoint x="243" y="1577" as="sourcePoint" />
            <mxPoint x="300" y="1580" as="targetPoint" />
          </mxGeometry>
        </mxCell>
        <mxCell id="p7YxxRicqZeljFZkp7yE-48" value="" style="endArrow=classic;html=1;rounded=0;exitX=0;exitY=1;exitDx=0;exitDy=0;dashed=1;" edge="1" parent="1" source="p7YxxRicqZeljFZkp7yE-4">
          <mxGeometry width="50" height="50" relative="1" as="geometry">
            <mxPoint x="333" y="1577" as="sourcePoint" />
            <mxPoint x="300" y="1660" as="targetPoint" />
          </mxGeometry>
        </mxCell>
        <mxCell id="p7YxxRicqZeljFZkp7yE-52" value="" style="endArrow=classic;html=1;rounded=0;exitX=1;exitY=0;exitDx=0;exitDy=0;" edge="1" parent="1" source="p7YxxRicqZeljFZkp7yE-5">
          <mxGeometry width="50" height="50" relative="1" as="geometry">
            <mxPoint x="310" y="1510" as="sourcePoint" />
            <mxPoint x="330" y="1500" as="targetPoint" />
          </mxGeometry>
        </mxCell>
        <mxCell id="p7YxxRicqZeljFZkp7yE-55" value="DAC卡间直连" style="text;html=1;align=center;verticalAlign=middle;whiteSpace=wrap;rounded=0;" vertex="1" parent="1">
          <mxGeometry x="440" y="1530" width="80" height="30" as="geometry" />
        </mxCell>
        <mxCell id="p7YxxRicqZeljFZkp7yE-56" value="交换机互连" style="text;html=1;align=center;verticalAlign=middle;whiteSpace=wrap;rounded=0;" vertex="1" parent="1">
          <mxGeometry x="440" y="1610" width="80" height="30" as="geometry" />
        </mxCell>
        <mxCell id="p7YxxRicqZeljFZkp7yE-57" value="" style="endArrow=classic;html=1;rounded=0;exitX=1;exitY=0.5;exitDx=0;exitDy=0;dashed=1;" edge="1" parent="1">
          <mxGeometry width="50" height="50" relative="1" as="geometry">
            <mxPoint x="440" y="1519.82" as="sourcePoint" />
            <mxPoint x="520" y="1520" as="targetPoint" />
          </mxGeometry>
        </mxCell>
        <mxCell id="p7YxxRicqZeljFZkp7yE-58" value="" style="endArrow=classic;html=1;rounded=0;" edge="1" parent="1">
          <mxGeometry width="50" height="50" relative="1" as="geometry">
            <mxPoint x="440" y="1600" as="sourcePoint" />
            <mxPoint x="520" y="1600" as="targetPoint" />
          </mxGeometry>
        </mxCell>
        <mxCell id="p7YxxRicqZeljFZkp7yE-59" value="D" style="ellipse;whiteSpace=wrap;html=1;aspect=fixed;flipH=1;" vertex="1" parent="1">
          <mxGeometry x="590" y="1550" width="20" height="20" as="geometry" />
        </mxCell>
        <mxCell id="p7YxxRicqZeljFZkp7yE-60" value="D" style="ellipse;whiteSpace=wrap;html=1;aspect=fixed;fontColor=#000000;flipH=1;" vertex="1" parent="1">
          <mxGeometry x="680" y="1550" width="20" height="20" as="geometry" />
        </mxCell>
        <mxCell id="p7YxxRicqZeljFZkp7yE-61" value="D" style="ellipse;whiteSpace=wrap;html=1;aspect=fixed;fontColor=#000000;flipH=1;" vertex="1" parent="1">
          <mxGeometry x="590" y="1630" width="20" height="20" as="geometry" />
        </mxCell>
        <mxCell id="p7YxxRicqZeljFZkp7yE-62" value="D" style="ellipse;whiteSpace=wrap;html=1;aspect=fixed;fontColor=#000000;flipH=1;" vertex="1" parent="1">
          <mxGeometry x="680" y="1630" width="20" height="20" as="geometry" />
        </mxCell>
        <mxCell id="p7YxxRicqZeljFZkp7yE-63" value="D" style="ellipse;whiteSpace=wrap;html=1;aspect=fixed;fontColor=#000000;flipH=1;" vertex="1" parent="1">
          <mxGeometry x="650" y="1510" width="20" height="20" as="geometry" />
        </mxCell>
        <mxCell id="p7YxxRicqZeljFZkp7yE-64" value="D" style="ellipse;whiteSpace=wrap;html=1;aspect=fixed;fontColor=#000000;flipH=1;dashed=1;" vertex="1" parent="1">
          <mxGeometry x="650" y="1590" width="20" height="20" as="geometry" />
        </mxCell>
        <mxCell id="p7YxxRicqZeljFZkp7yE-65" value="" style="endArrow=none;html=1;rounded=0;entryX=0.5;entryY=1;entryDx=0;entryDy=0;exitX=0.5;exitY=0;exitDx=0;exitDy=0;strokeColor=#FF0000;fontStyle=1" edge="1" parent="1" source="p7YxxRicqZeljFZkp7yE-61" target="p7YxxRicqZeljFZkp7yE-59">
          <mxGeometry width="50" height="50" relative="1" as="geometry">
            <mxPoint x="530" y="1651" as="sourcePoint" />
            <mxPoint x="580" y="1601" as="targetPoint" />
          </mxGeometry>
        </mxCell>
        <mxCell id="p7YxxRicqZeljFZkp7yE-66" value="" style="endArrow=none;html=1;rounded=0;entryX=0;entryY=0.5;entryDx=0;entryDy=0;exitX=1;exitY=0.5;exitDx=0;exitDy=0;strokeColor=#FF0000;" edge="1" parent="1" source="p7YxxRicqZeljFZkp7yE-61" target="p7YxxRicqZeljFZkp7yE-62">
          <mxGeometry width="50" height="50" relative="1" as="geometry">
            <mxPoint x="620" y="1651" as="sourcePoint" />
            <mxPoint x="610" y="1601" as="targetPoint" />
          </mxGeometry>
        </mxCell>
        <mxCell id="p7YxxRicqZeljFZkp7yE-67" value="" style="endArrow=none;html=1;rounded=0;entryX=0.5;entryY=1;entryDx=0;entryDy=0;exitX=0.5;exitY=0;exitDx=0;exitDy=0;strokeColor=#FF0000;" edge="1" parent="1" source="p7YxxRicqZeljFZkp7yE-62" target="p7YxxRicqZeljFZkp7yE-60">
          <mxGeometry width="50" height="50" relative="1" as="geometry">
            <mxPoint x="620" y="1651" as="sourcePoint" />
            <mxPoint x="620" y="1611" as="targetPoint" />
          </mxGeometry>
        </mxCell>
        <mxCell id="p7YxxRicqZeljFZkp7yE-68" value="" style="endArrow=none;html=1;rounded=0;entryX=0;entryY=0.5;entryDx=0;entryDy=0;exitX=1;exitY=0.5;exitDx=0;exitDy=0;strokeColor=#FF0000;" edge="1" parent="1" source="p7YxxRicqZeljFZkp7yE-59" target="p7YxxRicqZeljFZkp7yE-60">
          <mxGeometry width="50" height="50" relative="1" as="geometry">
            <mxPoint x="630" y="1661" as="sourcePoint" />
            <mxPoint x="630" y="1621" as="targetPoint" />
          </mxGeometry>
        </mxCell>
        <mxCell id="p7YxxRicqZeljFZkp7yE-69" value="" style="endArrow=none;html=1;rounded=0;entryX=0;entryY=1;entryDx=0;entryDy=0;exitX=1;exitY=0;exitDx=0;exitDy=0;strokeColor=#FF0000;" edge="1" parent="1" source="p7YxxRicqZeljFZkp7yE-59" target="p7YxxRicqZeljFZkp7yE-63">
          <mxGeometry width="50" height="50" relative="1" as="geometry">
            <mxPoint x="640" y="1671" as="sourcePoint" />
            <mxPoint x="640" y="1631" as="targetPoint" />
          </mxGeometry>
        </mxCell>
        <mxCell id="p7YxxRicqZeljFZkp7yE-70" value="" style="endArrow=none;html=1;rounded=0;exitX=1;exitY=0.5;exitDx=0;exitDy=0;strokeColor=#FF0000;entryX=0;entryY=0.5;entryDx=0;entryDy=0;" edge="1" parent="1" source="p7YxxRicqZeljFZkp7yE-63" target="p7YxxRicqZeljFZkp7yE-76">
          <mxGeometry width="50" height="50" relative="1" as="geometry">
            <mxPoint x="660" y="1691" as="sourcePoint" />
            <mxPoint x="720" y="1520" as="targetPoint" />
          </mxGeometry>
        </mxCell>
        <mxCell id="p7YxxRicqZeljFZkp7yE-71" value="" style="endArrow=none;html=1;rounded=0;entryX=0;entryY=1;entryDx=0;entryDy=0;exitX=1;exitY=0;exitDx=0;exitDy=0;strokeColor=#FF0000;" edge="1" parent="1" source="p7YxxRicqZeljFZkp7yE-62" target="p7YxxRicqZeljFZkp7yE-75">
          <mxGeometry width="50" height="50" relative="1" as="geometry">
            <mxPoint x="680" y="1711" as="sourcePoint" />
            <mxPoint x="690" y="1618" as="targetPoint" />
          </mxGeometry>
        </mxCell>
        <mxCell id="p7YxxRicqZeljFZkp7yE-72" value="" style="endArrow=none;html=1;rounded=0;entryX=0;entryY=1;entryDx=0;entryDy=0;exitX=1;exitY=0;exitDx=0;exitDy=0;strokeColor=#FF0000;dashed=1;" edge="1" parent="1" source="p7YxxRicqZeljFZkp7yE-61" target="p7YxxRicqZeljFZkp7yE-64">
          <mxGeometry width="50" height="50" relative="1" as="geometry">
            <mxPoint x="690" y="1721" as="sourcePoint" />
            <mxPoint x="690" y="1681" as="targetPoint" />
          </mxGeometry>
        </mxCell>
        <mxCell id="p7YxxRicqZeljFZkp7yE-73" value="" style="endArrow=none;html=1;rounded=0;entryX=0;entryY=0.5;entryDx=0;entryDy=0;exitX=1;exitY=0.5;exitDx=0;exitDy=0;dashed=1;strokeColor=#FF0000;" edge="1" parent="1" source="p7YxxRicqZeljFZkp7yE-64" target="p7YxxRicqZeljFZkp7yE-75">
          <mxGeometry width="50" height="50" relative="1" as="geometry">
            <mxPoint x="700" y="1731" as="sourcePoint" />
            <mxPoint x="687" y="1611" as="targetPoint" />
          </mxGeometry>
        </mxCell>
        <mxCell id="p7YxxRicqZeljFZkp7yE-74" value="" style="endArrow=none;html=1;rounded=0;entryX=0.5;entryY=1;entryDx=0;entryDy=0;exitX=0.5;exitY=0;exitDx=0;exitDy=0;strokeColor=#FF0000;dashed=1;" edge="1" parent="1" source="p7YxxRicqZeljFZkp7yE-64" target="p7YxxRicqZeljFZkp7yE-63">
          <mxGeometry width="50" height="50" relative="1" as="geometry">
            <mxPoint x="710" y="1741" as="sourcePoint" />
            <mxPoint x="710" y="1701" as="targetPoint" />
          </mxGeometry>
        </mxCell>
        <mxCell id="p7YxxRicqZeljFZkp7yE-75" value="D" style="ellipse;whiteSpace=wrap;html=1;aspect=fixed;fontColor=#000000;flipH=1;" vertex="1" parent="1">
          <mxGeometry x="730" y="1590" width="20" height="20" as="geometry" />
        </mxCell>
        <mxCell id="p7YxxRicqZeljFZkp7yE-76" value="D" style="ellipse;whiteSpace=wrap;html=1;aspect=fixed;fontColor=#000000;flipH=1;" vertex="1" parent="1">
          <mxGeometry x="730" y="1510" width="20" height="20" as="geometry" />
        </mxCell>
        <mxCell id="p7YxxRicqZeljFZkp7yE-77" value="" style="endArrow=none;html=1;rounded=0;entryX=0.5;entryY=1;entryDx=0;entryDy=0;exitX=0.5;exitY=0;exitDx=0;exitDy=0;strokeColor=#FF0000;" edge="1" parent="1" source="p7YxxRicqZeljFZkp7yE-75" target="p7YxxRicqZeljFZkp7yE-76">
          <mxGeometry width="50" height="50" relative="1" as="geometry">
            <mxPoint x="690" y="1640" as="sourcePoint" />
            <mxPoint x="690" y="1581" as="targetPoint" />
          </mxGeometry>
        </mxCell>
        <mxCell id="p7YxxRicqZeljFZkp7yE-78" value="" style="endArrow=none;html=1;rounded=0;entryX=0;entryY=1;entryDx=0;entryDy=0;exitX=1;exitY=0;exitDx=0;exitDy=0;strokeColor=#FF0000;" edge="1" parent="1" source="p7YxxRicqZeljFZkp7yE-60" target="p7YxxRicqZeljFZkp7yE-76">
          <mxGeometry width="50" height="50" relative="1" as="geometry">
            <mxPoint x="690" y="1640" as="sourcePoint" />
            <mxPoint x="690" y="1581" as="targetPoint" />
          </mxGeometry>
        </mxCell>
        <mxCell id="p7YxxRicqZeljFZkp7yE-79" value="" style="endArrow=classic;html=1;rounded=0;exitX=1;exitY=0.5;exitDx=0;exitDy=0;dashed=1;" edge="1" parent="1" source="p7YxxRicqZeljFZkp7yE-75">
          <mxGeometry width="50" height="50" relative="1" as="geometry">
            <mxPoint x="640" y="1550" as="sourcePoint" />
            <mxPoint x="780" y="1600" as="targetPoint" />
          </mxGeometry>
        </mxCell>
        <mxCell id="p7YxxRicqZeljFZkp7yE-80" value="" style="endArrow=classic;html=1;rounded=0;dashed=1;" edge="1" parent="1">
          <mxGeometry width="50" height="50" relative="1" as="geometry">
            <mxPoint x="750.000000000005" y="1520" as="sourcePoint" />
            <mxPoint x="780" y="1520" as="targetPoint" />
          </mxGeometry>
        </mxCell>
        <mxCell id="p7YxxRicqZeljFZkp7yE-81" value="" style="endArrow=classic;html=1;rounded=0;exitX=0.5;exitY=1;exitDx=0;exitDy=0;" edge="1" parent="1" source="p7YxxRicqZeljFZkp7yE-75">
          <mxGeometry width="50" height="50" relative="1" as="geometry">
            <mxPoint x="740" y="1620" as="sourcePoint" />
            <mxPoint x="740" y="1640" as="targetPoint" />
          </mxGeometry>
        </mxCell>
        <mxCell id="p7YxxRicqZeljFZkp7yE-82" value="" style="endArrow=classic;html=1;rounded=0;exitX=0.5;exitY=1;exitDx=0;exitDy=0;" edge="1" parent="1">
          <mxGeometry width="50" height="50" relative="1" as="geometry">
            <mxPoint x="689.89" y="1650" as="sourcePoint" />
            <mxPoint x="689.89" y="1680" as="targetPoint" />
          </mxGeometry>
        </mxCell>
        <mxCell id="p7YxxRicqZeljFZkp7yE-83" value="" style="endArrow=classic;html=1;rounded=0;" edge="1" parent="1">
          <mxGeometry width="50" height="50" relative="1" as="geometry">
            <mxPoint x="600" y="1650" as="sourcePoint" />
            <mxPoint x="600" y="1680" as="targetPoint" />
          </mxGeometry>
        </mxCell>
        <mxCell id="p7YxxRicqZeljFZkp7yE-84" value="" style="endArrow=classic;html=1;rounded=0;dashed=1;" edge="1" parent="1">
          <mxGeometry width="50" height="50" relative="1" as="geometry">
            <mxPoint x="700" y="1560" as="sourcePoint" />
            <mxPoint x="730" y="1560" as="targetPoint" />
          </mxGeometry>
        </mxCell>
        <mxCell id="p7YxxRicqZeljFZkp7yE-85" value="" style="endArrow=classic;html=1;rounded=0;exitX=1;exitY=0.5;exitDx=0;exitDy=0;dashed=1;" edge="1" parent="1">
          <mxGeometry width="50" height="50" relative="1" as="geometry">
            <mxPoint x="700" y="1639.89" as="sourcePoint" />
            <mxPoint x="730" y="1640" as="targetPoint" />
          </mxGeometry>
        </mxCell>
        <mxCell id="p7YxxRicqZeljFZkp7yE-86" value="" style="endArrow=classic;html=1;rounded=0;dashed=1;" edge="1" parent="1">
          <mxGeometry width="50" height="50" relative="1" as="geometry">
            <mxPoint x="600" y="1550" as="sourcePoint" />
            <mxPoint x="600" y="1520" as="targetPoint" />
          </mxGeometry>
        </mxCell>
        <mxCell id="p7YxxRicqZeljFZkp7yE-87" value="" style="endArrow=classic;html=1;rounded=0;dashed=1;" edge="1" parent="1">
          <mxGeometry width="50" height="50" relative="1" as="geometry">
            <mxPoint x="659.89" y="1510" as="sourcePoint" />
            <mxPoint x="659.89" y="1480" as="targetPoint" />
          </mxGeometry>
        </mxCell>
        <mxCell id="p7YxxRicqZeljFZkp7yE-88" value="" style="endArrow=classic;html=1;rounded=0;dashed=1;" edge="1" parent="1">
          <mxGeometry width="50" height="50" relative="1" as="geometry">
            <mxPoint x="739.89" y="1510" as="sourcePoint" />
            <mxPoint x="739.89" y="1480" as="targetPoint" />
          </mxGeometry>
        </mxCell>
        <mxCell id="p7YxxRicqZeljFZkp7yE-89" value="" style="endArrow=classic;html=1;rounded=0;dashed=1;" edge="1" parent="1">
          <mxGeometry width="50" height="50" relative="1" as="geometry">
            <mxPoint x="689.89" y="1551" as="sourcePoint" />
            <mxPoint x="689.89" y="1521" as="targetPoint" />
          </mxGeometry>
        </mxCell>
        <mxCell id="p7YxxRicqZeljFZkp7yE-90" value="" style="endArrow=classic;html=1;rounded=0;exitX=0.5;exitY=1;exitDx=0;exitDy=0;" edge="1" parent="1">
          <mxGeometry width="50" height="50" relative="1" as="geometry">
            <mxPoint x="659.89" y="1610" as="sourcePoint" />
            <mxPoint x="659.89" y="1640" as="targetPoint" />
          </mxGeometry>
        </mxCell>
        <mxCell id="p7YxxRicqZeljFZkp7yE-91" value="" style="endArrow=classic;html=1;rounded=0;exitX=0;exitY=0.5;exitDx=0;exitDy=0;dashed=1;" edge="1" parent="1" source="p7YxxRicqZeljFZkp7yE-59">
          <mxGeometry width="50" height="50" relative="1" as="geometry">
            <mxPoint x="609.89" y="1661" as="sourcePoint" />
            <mxPoint x="560" y="1560" as="targetPoint" />
          </mxGeometry>
        </mxCell>
        <mxCell id="p7YxxRicqZeljFZkp7yE-92" value="" style="endArrow=classic;html=1;rounded=0;exitX=0;exitY=0.5;exitDx=0;exitDy=0;" edge="1" parent="1">
          <mxGeometry width="50" height="50" relative="1" as="geometry">
            <mxPoint x="590" y="1639.93" as="sourcePoint" />
            <mxPoint x="560" y="1639.93" as="targetPoint" />
          </mxGeometry>
        </mxCell>
        <mxCell id="p7YxxRicqZeljFZkp7yE-93" value="" style="endArrow=classic;html=1;rounded=0;exitX=0;exitY=0.5;exitDx=0;exitDy=0;dashed=1;" edge="1" parent="1">
          <mxGeometry width="50" height="50" relative="1" as="geometry">
            <mxPoint x="650" y="1599.93" as="sourcePoint" />
            <mxPoint x="620" y="1599.93" as="targetPoint" />
          </mxGeometry>
        </mxCell>
        <mxCell id="p7YxxRicqZeljFZkp7yE-94" value="" style="endArrow=classic;html=1;rounded=0;exitX=1;exitY=0;exitDx=0;exitDy=0;dashed=1;" edge="1" parent="1" source="p7YxxRicqZeljFZkp7yE-64">
          <mxGeometry width="50" height="50" relative="1" as="geometry">
            <mxPoint x="660" y="1609.93" as="sourcePoint" />
            <mxPoint x="690" y="1580" as="targetPoint" />
          </mxGeometry>
        </mxCell>
        <mxCell id="p7YxxRicqZeljFZkp7yE-95" value="" style="endArrow=classic;html=1;rounded=0;exitX=1;exitY=0;exitDx=0;exitDy=0;dashed=1;" edge="1" parent="1" source="p7YxxRicqZeljFZkp7yE-75">
          <mxGeometry width="50" height="50" relative="1" as="geometry">
            <mxPoint x="750" y="1590" as="sourcePoint" />
            <mxPoint x="770" y="1580" as="targetPoint" />
          </mxGeometry>
        </mxCell>
        <mxCell id="p7YxxRicqZeljFZkp7yE-96" value="" style="endArrow=classic;html=1;rounded=0;exitX=1;exitY=0;exitDx=0;exitDy=0;dashed=1;" edge="1" parent="1" source="p7YxxRicqZeljFZkp7yE-76">
          <mxGeometry width="50" height="50" relative="1" as="geometry">
            <mxPoint x="750" y="1513" as="sourcePoint" />
            <mxPoint x="770" y="1500" as="targetPoint" />
          </mxGeometry>
        </mxCell>
        <mxCell id="p7YxxRicqZeljFZkp7yE-97" value="" style="endArrow=classic;html=1;rounded=0;exitX=0;exitY=0.5;exitDx=0;exitDy=0;dashed=1;" edge="1" parent="1">
          <mxGeometry width="50" height="50" relative="1" as="geometry">
            <mxPoint x="650" y="1519.93" as="sourcePoint" />
            <mxPoint x="620" y="1519.93" as="targetPoint" />
          </mxGeometry>
        </mxCell>
        <mxCell id="p7YxxRicqZeljFZkp7yE-98" value="" style="endArrow=classic;html=1;rounded=0;exitX=0;exitY=1;exitDx=0;exitDy=0;dashed=1;" edge="1" parent="1" source="p7YxxRicqZeljFZkp7yE-61">
          <mxGeometry width="50" height="50" relative="1" as="geometry">
            <mxPoint x="677" y="1603" as="sourcePoint" />
            <mxPoint x="570" y="1660" as="targetPoint" />
          </mxGeometry>
        </mxCell>
        <mxCell id="p7YxxRicqZeljFZkp7yE-99" value="" style="endArrow=classic;html=1;rounded=0;exitX=0;exitY=1;exitDx=0;exitDy=0;dashed=1;" edge="1" parent="1" source="p7YxxRicqZeljFZkp7yE-59">
          <mxGeometry width="50" height="50" relative="1" as="geometry">
            <mxPoint x="590" y="1570" as="sourcePoint" />
            <mxPoint x="570" y="1580" as="targetPoint" />
          </mxGeometry>
        </mxCell>
        <mxCell id="p7YxxRicqZeljFZkp7yE-100" value="" style="endArrow=classic;html=1;rounded=0;exitX=0;exitY=1;exitDx=0;exitDy=0;dashed=1;" edge="1" parent="1" source="p7YxxRicqZeljFZkp7yE-60">
          <mxGeometry width="50" height="50" relative="1" as="geometry">
            <mxPoint x="603" y="1577" as="sourcePoint" />
            <mxPoint x="660" y="1580" as="targetPoint" />
          </mxGeometry>
        </mxCell>
        <mxCell id="p7YxxRicqZeljFZkp7yE-101" value="" style="endArrow=classic;html=1;rounded=0;exitX=0;exitY=1;exitDx=0;exitDy=0;dashed=1;" edge="1" parent="1" source="p7YxxRicqZeljFZkp7yE-62">
          <mxGeometry width="50" height="50" relative="1" as="geometry">
            <mxPoint x="693" y="1577" as="sourcePoint" />
            <mxPoint x="660" y="1660" as="targetPoint" />
          </mxGeometry>
        </mxCell>
        <mxCell id="p7YxxRicqZeljFZkp7yE-102" value="" style="endArrow=classic;html=1;rounded=0;exitX=1;exitY=0;exitDx=0;exitDy=0;" edge="1" parent="1" source="p7YxxRicqZeljFZkp7yE-63">
          <mxGeometry width="50" height="50" relative="1" as="geometry">
            <mxPoint x="670" y="1510" as="sourcePoint" />
            <mxPoint x="690" y="1500" as="targetPoint" />
          </mxGeometry>
        </mxCell>
      </root>
    </mxGraphModel>
  </diagram>
</mxfile>
